# xmcd
#
# Track frame offsets: 
#        150
#        20245
#        22947
#        39490
#        62277
#        64747
#        84775
#        101442
#        113487
#        132325
#        138090
#        152205
#        174540
#        197540
#        201275
#        223615
#        230442
#
# Disc length: 3257 seconds
#
# Revision: 4
# Processed by: cddbd v1.5.2PL0 Copyright (c) Steve Scherf et al.
# Submitted via: ExactAudioCopyFreeDBPlugin 1.0
#
DISCID=da0cb711
DTITLE=Paul Personne - Comme A La Maison
DYEAR=1992
DGENRE=Blues
TTITLE0=Salut!
TTITLE1="Boom Boom"
TTITLE2=Le Rôle... On L'A D'ja!
TTITLE3=General Lee
TTITLE4="Fantômes"
TTITLE5=Nuits Blanches... Etoilées
TTITLE6=Vagabondage
TTITLE7=Quelqu'un Appelle
TTITLE8=Lavomatics
TTITLE9="P'tit Blues"
TTITLE10=En Cabane Sur Les Branches
TTITLE11=Serenity Street
TTITLE12=Picnic Existentiel Au Bord D'Un Lit
TTITLE13="Cow-Boy"
TTITLE14=Le Bourdon
TTITLE15=Repaire
TTITLE16=Mélancolie
EXTD=
EXTT0=
EXTT1=
EXTT2=
EXTT3=
EXTT4=
EXTT5=
EXTT6=
EXTT7=
EXTT8=
EXTT9=
EXTT10=
EXTT11=
EXTT12=
EXTT13=
EXTT14=
EXTT15=
EXTT16=
PLAYORDER=
